<?xml version="1.0" encoding="UTF-8" standalone="no"?>
<svg
   xmlns:svg="http://www.w3.org/2000/svg"
   xmlns="http://www.w3.org/2000/svg"
   viewBox="0 0 32 32">

  <path
     d="m 30.46188,30.83753 1.49997,-6.49987 c 0.1625,-0.70624 -0.20624,-1.43122 -0.86873,-1.71872 L 24.09326,19.619 c -0.61248,-0.26249 -1.33122,-0.0875 -1.74996,0.43125 l -3.09994,3.78742 C 14.44971,21.58771 10.46229,17.65654 8.16859,12.76289 L 11.95601,9.66296 C 12.47475,9.23797 12.64975,8.52548 12.38725,7.91299 L 9.38731,0.91313 C 9.09357,0.2444 8.36858,-0.12434 7.66235,0.03815 L 1.16248,1.53812 C 0.48749,1.69437 0,2.29436 0,3.00059 0,19.00652 12.96849,32 28.99941,32 c 0.69999,0 1.30623,-0.48124 1.46247,-1.16247 z"
     id="path4001"
     style="stroke-width:0.06249873" fill="#302a7a" />
</svg>

